<svg xmlns="http://www.w3.org/2000/svg" viewBox="160 -12 320 265">
  <defs>
    <style>
      .st0 { fill: #25272a; }
      .st1 { fill: #09bdde; }
      .st2 { fill: #fbbc5c; }
      .st3 { fill: #fc555a; }
    </style>
  </defs>
  <path class="st0" d="M373.3-4.5c.5.9,2,.4,2.9.5,15.5,1.4,29.8,12.4,36,26.4,14.3-4.2,30.2-8.8,45.3-7.7s6.9.8,7.4,2.3c1.3,4.3-5.5,3.2-7.8,3.5-15,2-27.4,7.9-40.3,15.3-.6.9,0,9.3-.2,11.3-1.2,18-14.6,33.6-30.9,40.1-5,33.6-28.2,62.6-61,72.4-11.2,3.4-22.2,3.7-33.8,4.1l-76.8,78.2c-5.6,4.5-13.6,4.6-19.2,0s-15.8-15.6-20.7-21.2-6.6-14.4-.5-21.9,4.2-3.7,5.8-5.3c11.7-12.3,23.4-24.6,35.2-36.7,9.8-10,20-19.6,29.6-29.9,1.3-1.9-.2-1.5-.5-2-13.5-23.8-30.8-46.8-45.4-70.1-2.7-4.3-6.9-10.1-7.4-15.2-1.4-14.8,9.2-25.8,24.1-24.1l105.7,33c5.6-2.7,3.6-6.4,4.1-11.2,2.2-20.6,19-38.7,39.8-41.1l2.9-.5h5.8ZM387.5,11.5c-19.3-10.6-43.7-.4-49.9,20.6-9.5,32.5,27.7,59.6,54.6,37.8s16.7-46.5-4.7-58.3ZM311.9,57.4c-4.1-1.4-8.4-2.2-12.6-3.5-26.1-8-52.2-17.4-78.5-25.2-6.2-1.8-13.3-4.7-17.4,2.5s-.7,9,2.1,13.8,5.4,7.1,7.7,10.6c12.8,19.5,25,39.4,38.2,58.3.5.8,1.1,2.1,1.5,3l1.2-.5c12.8-13.4,26.6-25.7,39.4-39s2-3.2,3.2-4.5c3.9-4.1,10.8-9.1,14-13.3s1.5-1.8,1.2-2.2ZM373.3,89h-8.4c-.4,0-6.4-1.7-7.5-2.1-10.9-3.2-21.2-11.9-26.6-21.8s-1.9-4.3-2.6-6.3h-1.8s-89.8,91.8-89.8,91.8l.3,1.2h65.7c31-1.7,58.2-21.9,68.2-51.2.5-1.5,3.2-11,2.5-11.6ZM274,163.4h-48.7c-13.3,13.4-26.8,26.6-39.8,40.3s-1.5.9-2.2,1.7c-3.8,4.1-2.7,5.1.7,8.9s10.9,10.6,16.1,15.6,2.1,3.5,4.5,3.5,9-8.3,11.1-10.4c14.3-14.4,29-28.7,43.3-43.3s10.1-10.8,15-16.1Z"/>
  <path class="st1" d="M373.3,89c.6.6-2,10.1-2.5,11.6-10,29.3-37.2,49.6-68.2,51.3h-65.7s-.3-1.2-.3-1.2l89.8-91.8h1.8c.7,2,1.6,4.4,2.6,6.2,5.4,10,15.8,18.6,26.6,21.8s7.1,2.1,7.5,2.1h8.4Z"/>
  <path class="st3" d="M311.9,57.4c.4.4-.8,1.8-1.2,2.2-3.3,4.2-10.1,9.3-14,13.3s-2.2,3.4-3.2,4.5c-12.8,13.3-26.6,25.7-39.4,39l-1.2.5c-.3-.9-.9-2.2-1.5-3-13.3-18.9-25.4-38.9-38.2-58.3s-5.5-6.9-7.7-10.6-5.2-8.3-2.1-13.8,11.2-4.3,17.4-2.5c26.3,7.8,52.3,17.2,78.5,25.2s8.5,2.1,12.6,3.5Z"/>
  <path class="st2" d="M387.5,11.5c21.4,11.8,23.7,43,4.7,58.3-26.9,21.8-64.1-5.2-54.6-37.8,6.1-20.9,30.6-31.2,49.9-20.6ZM389.4,25.4c-8.1-5.4-17,3.7-12.2,12s10.4,5.3,14,.7c2.8-3.7,2.2-10-1.7-12.7Z"/>
  <path class="st2" d="M274,163.4c-4.9,5.4-9.9,10.9-15,16.1-14.3,14.6-28.9,29-43.3,43.3s-8.6,10.3-11.1,10.4-3.3-2.4-4.5-3.5c-5.2-4.9-11.3-10.3-16.1-15.6s-4.5-4.8-.7-8.9,1.6-1.1,2.2-1.7c13-13.7,26.5-26.9,39.8-40.3h48.7Z"/>
  <path class="st0" d="M389.4,25.4c3.9,2.6,4.6,9,1.7,12.7-3.6,4.6-11,4.4-14-.7-4.8-8.3,4.1-17.4,12.2-12Z"/>
</svg>
