<?xml version="1.0" encoding="UTF-8"?>
<svg id="Layer_1" xmlns="http://www.w3.org/2000/svg" version="1.1" viewBox="0 0 582 479.8">
  <!-- Generator: Adobe Illustrator 30.0.0, SVG Export Plug-In . SVG Version: 2.1.1 Build 123)  -->
  <defs>
    <style>
      .st0 {
        fill: #25272a;
      }

      .st1 {
        fill: #09bdde;
      }

      .st2 {
        fill: #fbbc5c;
      }

      .st3 {
        fill: #fc555a;
      }
    </style>
  </defs>
  <path class="st0" d="M373.3-4.5c.5.9,2,.4,2.9.5,15.5,1.4,29.8,12.4,36,26.4,14.3-4.2,30.2-8.8,45.3-7.7s6.9.8,7.4,2.3c1.3,4.3-5.5,3.2-7.8,3.5-15,2-27.4,7.9-40.3,15.3-.6.9,0,9.3-.2,11.3-1.2,18-14.6,33.6-30.9,40.1-5,33.6-28.2,62.6-61,72.4-11.2,3.4-22.2,3.7-33.8,4.1l-76.8,78.2c-5.6,4.5-13.6,4.6-19.2,0s-15.8-15.6-20.7-21.2-6.6-14.4-.5-21.9,4.2-3.7,5.8-5.3c11.7-12.3,23.4-24.6,35.2-36.7,9.8-10,20-19.6,29.6-29.9,1.3-1.9-.2-1.5-.5-2-13.5-23.8-30.8-46.8-45.4-70.1-2.7-4.3-6.9-10.1-7.4-15.2-1.4-14.8,9.2-25.8,24.1-24.1l105.7,33c5.6-2.7,3.6-6.4,4.1-11.2,2.2-20.6,19-38.7,39.8-41.1l2.9-.5h5.8ZM387.5,11.5c-19.3-10.6-43.7-.4-49.9,20.6-9.5,32.5,27.7,59.6,54.6,37.8s16.7-46.5-4.7-58.3ZM311.9,57.4c-4.1-1.4-8.4-2.2-12.6-3.5-26.1-8-52.2-17.4-78.5-25.2-6.2-1.8-13.3-4.7-17.4,2.5s-.7,9,2.1,13.8,5.4,7.1,7.7,10.6c12.8,19.5,25,39.4,38.2,58.3.5.8,1.1,2.1,1.5,3l1.2-.5c12.8-13.4,26.6-25.7,39.4-39s2-3.2,3.2-4.5c3.9-4.1,10.8-9.1,14-13.3s1.5-1.8,1.2-2.2ZM373.3,89h-8.4c-.4,0-6.4-1.7-7.5-2.1-10.9-3.2-21.2-11.9-26.6-21.8s-1.9-4.3-2.6-6.3h-1.8s-89.8,91.8-89.8,91.8l.3,1.2h65.7c31-1.7,58.2-21.9,68.2-51.2.5-1.5,3.2-11,2.5-11.6ZM274,163.4h-48.7c-13.3,13.4-26.8,26.6-39.8,40.3s-1.5.9-2.2,1.7c-3.8,4.1-2.7,5.1.7,8.9s10.9,10.6,16.1,15.6,2.1,3.5,4.5,3.5,9-8.3,11.1-10.4c14.3-14.4,29-28.7,43.3-43.3s10.1-10.8,15-16.1Z"/>
  <path class="st0" d="M0,390.8h13s-.5,24.5-.5,24.5c5.4-6.7,15.1-8.7,22.9-4.9s7.4,7,7.4,10.4v33.8h-12.5v-29c0-.4-1-2.9-1.3-3.5-2.9-5.1-10.8-4.2-13.8.4-.9,1.3-2.2,5.9-2.2,7.4v24.7H.5l-.5-62.8v-1Z"/>
  <rect class="st0" x="581.5" y="390.8" width=".5" height="63.8"/>
  <polygon class="st0" points=".5 454.6 0 454.6 0 391.8 .5 454.6"/>
  <path class="st0" d="M374.2,474.8v.5h-9.1v-.5c2.9.1,6.2.1,9.1,0Z"/>
  <path class="st2" d="M376.2-4.5v.5c-.9,0-2.3.4-2.9-.5h2.9Z"/>
  <polygon class="st2" points="367.5 -4.5 364.6 -4 364.6 -4.5 367.5 -4.5"/>
  <path class="st0" d="M376.6,474.8v.5h-2.4v-.5c.8,0,1.6,0,2.4,0Z"/>
  <path class="st0" d="M151.6,324.1h11.5c1.6,5.5-1.6,16,2.9,19.9s2.7,1.7,3.1,1.7h37.7v-39.3h11.5c.2.5-.5,1.1-.5,1.2v22.3c6.6-4,13.1-7,20.9-4.9s13.4,11.5,14.6,20.6c4.1-.6,16.1,1.3,19.1-.7s1.5-1.6,1.5-1.9v-41.5h11.5c.1,2.9-.1,5.9,0,8.9.4,10.5,1.7,25.7.4,35.9-.7,6.1-5.3,9.4-11.2,9.9h-106.6c-3.6,0-5.5-2.5-8.1-4.4-3.2,2.7-5.8,4-10.1,4.4-25.7,1.9-53.7-1.5-79.7,0-4.7-.3-8.8-4.2-9.3-8.9l-.5-45.8h11.3c0,0,.7.7.7.7v40.8c0,.9,2.4,2.9,3.6,2.6,22.5-1.3,46.8,1.6,69.1,0,1.7-.1,6.5-1,6.5-3.1v-18.5ZM241.8,345.7c-1.4-18.5-19.5-11.6-25.4,0h25.4Z"/>
  <path class="st0" d="M418.9,301.6v41c0,.8,1.8,3.1,2.6,3.1h56.9v-39.3h11.5c.2.5-.5,1.1-.5,1.2v22.3c6.6-4,13.1-7,20.9-4.9s13.4,11.5,14.6,20.6c4.1-.6,16.1,1.3,19.1-.7s1.5-1.6,1.5-1.9v-41.5h11.3c0,0,.7.7.7.7v44.6c0,4.6-6.3,9.4-10.8,9.4l-131.7-.2c-3.9-1.1-6.8-4.2-7.6-8.2l-.5-46.3h12ZM513.4,345.7c-1.6-16.3-15-13.2-23.3-3.4s-1.9,2.2-2.2,3.4h25.4Z"/>
  <path class="st0" d="M120.4,409.5l1.4,5.8c6.3-8,19-9.4,26.4-2.2s1.1,2.4,2.6,2.2,2.4-3.2,3.6-4.1c5.8-3.9,17.5-3.7,22.3,1.7s3.6,7.2,3.6,9.8v31.9h-13v-29.5c0-.4-1-2.9-1.3-3.5-2.7-4.7-10.1-3.4-12.6,1s-1.9,5.3-1.9,6.7v25.2h-12.5v-28.1c0-.9-1.5-5.2-2.2-6-2.7-3.1-8.6-2.1-11,.9s-2.6,5-2.6,6.5v26.6h-13v-45.1h10.1Z"/>
  <path class="st0" d="M203,409.5l1.4,5.8c6.3-8,19-9.4,26.4-2.2s1.1,2.4,2.6,2.2,2.4-3.2,3.6-4.1c5.8-3.9,17.5-3.7,22.3,1.7s3.6,7.2,3.6,9.8v31.9h-13v-29.5c0-.4-1-2.9-1.3-3.5-2.7-4.7-10.1-3.4-12.6,1s-1.9,5.3-1.9,6.7v25.2h-12.5v-28.1c0-.9-1.5-5.2-2.2-6-2.7-3.1-8.6-2.1-11,.9s-2.6,5-2.6,6.5v26.6h-13v-45.1h10.1Z"/>
  <path class="st0" d="M365.1,474.8c-9.1-.4-17-4.5-15.2-15s5.4-7.2,9.5-8l-3.1-2.9c-3.3-4.9,0-8.9,4-11.7-10-5.4-9.8-21.3.5-26.4,7.4-3.6,12.6-1.5,19.9-1.2s10.1-.2,15.1,0v6.7l-6.7,1.4c4.7,10.4-1.2,20.4-12.4,21.9-2.6.4-8-.4-9.9.2s-2.2,3.2-.8,4.5c2.5,2.2,12.3.9,16,1.2,9.2.8,14.4,6,13.2,15.5-1.1,8.6-11,13.1-18.7,13.7s-1.6,0-2.4,0c-2.9.1-6.2.1-9.1,0ZM370.3,416.3c-5.1.8-5.8,6.6-4.9,10.9,1.4,6.4,11.4,6.6,13,.5s-.8-12.6-8.1-11.4ZM366.9,455.7c-6.9,1-9.4,8.1-2.2,10.6,4.7,1.6,18.3,1,19.5-5.3s-13.4-5.8-17.3-5.3Z"/>
  <path class="st0" d="M437.6,390.8v22.8c0,.3-1,1.3-.2,1.7,7.4-10,22.3-8.7,27.8,2.4s3.5,18.1,1.4,25c-3.9,12.7-17.4,17.3-27.8,8.6-.7-.6-.4-1.8-1.9-1.4l-2.4,4.8h-9.4v-63.8h12.5ZM444.7,418.7c-9.9,1.6-8.8,22.6-2.4,25.7,12.4,5.9,15.3-13.4,11.3-21.3s-5.1-5-8.8-4.4Z"/>
  <path class="st0" d="M581.5,390.8v63.8h-9.5c0,0-2-5.8-2-5.8-.7-.1-.6,0-1,.3-3.2,3.4-4.3,5.4-9.5,6.2-19.5,3.1-23.6-21.2-18.8-35.1s20.3-15.9,29.3-5.5l-.5-24h12ZM560.3,418.7c-10.9.6-11.6,24-1.7,26.4s13.2-12.1,10.7-20.3-4.5-6.4-9-6.1Z"/>
  <path class="st0" d="M357.5,324.1v9.8c0,.2.4.8.5,1.4.3,4.1-.5,8.6,4.9,10s14.8.7,17.9.3,3.6-1.3,3.6-2.6v-19h11.3c0,0,.7.7.7.7v22.1c0,2.9-3.6,7-6.2,8.2-4.3,1.8-21.9,1.7-27.1,1.2s-3.7-.9-5.7-1.4c-1.1.3-.7,2.4-1,3.4-2.2,7-8.4,12.3-15.2,14.5s-6.3,2-7.8.9c-1.5-2.7-4.8-5.1-6.4-7.5s-.7-.5-.5-1.2c6.3-.6,14-3.6,17.5-9.2s2.2-4.1,2.2-5v-26.6h11.5Z"/>
  <path class="st0" d="M68.1,409.5v30c0,.3,1.4,3.1,1.7,3.6,3.1,4.2,11,2.6,13.4-1.9s1.7-4.7,1.7-5.5v-26.1h13v45.1h-10.1l-1.4-5.8c-5.5,6.8-15.6,8.7-23.5,5-3.9-1.8-7.7-7.8-7.7-12v-32.4h13Z"/>
  <path class="st0" d="M13.9,324.1v28.1c0,.2.7,2.5.9,3,3.2,8.9,15.4,10.9,20.9,3s2.2-4.1,2.2-4.5v-29.5h11.5c-1.2,15.5,5.9,35.5-9.4,46-15.2,10.4-35.1,1.6-37.6-16.5l-.5-29.5h12Z"/>
  <path class="st0" d="M343.1,454.6h-12.5v-29c0-.5-1.4-3.9-1.8-4.4-3-4.2-11-2.9-13.5,1.6s-2,5.7-2,7.1v24.7h-12.5v-45.1h9.6l1.7,5.8c1,0,2.2-2.3,3.2-3.1,6.3-5.3,19.8-4.9,24.9,1.9s2.9,5.6,2.9,6.7v33.8Z"/>
  <path class="st0" d="M513.4,409.5l2.2,7.7c3.6-6.2,10.5-10.1,17.7-8.2.9.6-.6,9.9-.7,11.6h-7c-3.7,0-9.4,5.5-9.4,9.4v24.7h-12.5v-45.1h9.6Z"/>
  <polygon class="st0" points="580.1 301.6 580.6 356.3 568.6 356.3 568.8 301.6 580.1 301.6"/>
  <polygon class="st0" points="308.5 301.6 309 356.3 297 356.3 297 301.6 308.5 301.6"/>
  <rect class="st0" x="478.4" y="409.5" width="12.5" height="45.1"/>
  <rect class="st0" x="275.4" y="409.5" width="12.5" height="45.1"/>
  <path class="st0" d="M368.5,317.9c1.2-3.4,1.9-8.9,6.7-7.7-2.8-7.9,4-14.8,11.8-11.1s3,2.2,3.4,2.9-2.2,3.9-2.9,4.8c-.9.3-.8-1.1-1.8-1.6-2.7-1.4-4.6,1-3.4,3.9s8.3.1,8.3,1.8v7h-22.1Z"/>
  <path class="st0" d="M279.6,391.4c6.3-1.1,10.1,2.2,8.7,8.7s-12.7,5.7-13.4-1.3.6-6.6,4.7-7.3Z"/>
  <path class="st0" d="M482.6,391.4c6.3-1.1,10.1,2.2,8.7,8.7-1.1,4.9-12.7,5.7-13.4-1.3s.6-6.6,4.7-7.3Z"/>
  <path class="st0" d="M152.1,317.9v-10.1h9.8c0,0,.7.7.7.7v8.6c0,0-.7.7-.7.7h-9.8Z"/>
  <rect class="st0" x="20.6" y="306.8" width="10.1" height="9.6"/>
  <path class="st1" d="M373.3,89c.6.6-2,10.1-2.5,11.6-10,29.3-37.2,49.6-68.2,51.3h-65.7s-.3-1.2-.3-1.2l89.8-91.8h1.8c.7,2,1.6,4.4,2.6,6.2,5.4,10,15.8,18.6,26.6,21.8s7.1,2.1,7.5,2.1h8.4Z"/>
  <path class="st3" d="M311.9,57.4c.4.4-.8,1.8-1.2,2.2-3.3,4.2-10.1,9.3-14,13.3s-2.2,3.4-3.2,4.5c-12.8,13.3-26.6,25.7-39.4,39l-1.2.5c-.3-.9-.9-2.2-1.5-3-13.3-18.9-25.4-38.9-38.2-58.3s-5.5-6.9-7.7-10.6-5.2-8.3-2.1-13.8,11.2-4.3,17.4-2.5c26.3,7.8,52.3,17.2,78.5,25.2s8.5,2.1,12.6,3.5Z"/>
  <path class="st2" d="M387.5,11.5c21.4,11.8,23.7,43,4.7,58.3-26.9,21.8-64.1-5.2-54.6-37.8,6.1-20.9,30.6-31.2,49.9-20.6ZM389.4,25.4c-8.1-5.4-17,3.7-12.2,12s10.4,5.3,14,.7c2.8-3.7,2.2-10-1.7-12.7Z"/>
  <path class="st2" d="M274,163.4c-4.9,5.4-9.9,10.9-15,16.1-14.3,14.6-28.9,29-43.3,43.3s-8.6,10.3-11.1,10.4-3.3-2.4-4.5-3.5c-5.2-4.9-11.3-10.3-16.1-15.6s-4.5-4.8-.7-8.9,1.6-1.1,2.2-1.7c13-13.7,26.5-26.9,39.8-40.3h48.7Z"/>
  <path class="st0" d="M389.4,25.4c3.9,2.6,4.6,9,1.7,12.7-3.6,4.6-11,4.4-14-.7-4.8-8.3,4.1-17.4,12.2-12Z"/>
</svg>